<svg width="155.1" height="23" viewBox="0 0 155.1 23" fill="none" xmlns="http://www.w3.org/2000/svg">
  <rect x="0" y="1.5" width="20" height="20" rx="4.5" fill="#22DD66"/>
  <path d="M59.9111328125 10.79833984375Q60.57763671875 10.79833984375 60.921875 10.50537109375Q61.26611328125 10.21240234375 61.26611328125 9.64111328125Q61.26611328125 9.0771484375 60.921875 8.780517578125Q60.57763671875 8.48388671875 59.9111328125 8.48388671875H58.35107421875V10.79833984375ZM60.00634765625 15.5810546875Q60.85595703125 15.5810546875 61.284423828125 15.22216796875Q61.712890625 14.86328125 61.712890625 14.13818359375Q61.712890625 13.427734375 61.2880859375 13.072509765625Q60.86328125 12.71728515625 60.00634765625 12.71728515625H58.35107421875V15.5810546875ZM62.62841796875 11.64794921875Q63.53662109375 11.91162109375 64.03466796875 12.6220703125Q64.53271484375 13.33251953125 64.53271484375 14.365234375Q64.53271484375 15.947265625 63.46337890625 16.7236328125Q62.39404296875 17.5 60.21142578125 17.5H55.53125V6.56494140625H59.7646484375Q62.04248046875 6.56494140625 63.064208984375 7.25341796875Q64.0859375 7.94189453125 64.0859375 9.4580078125Q64.0859375 10.25634765625 63.71240234375 10.816650390625Q63.3388671875 11.376953125 62.62841796875 11.64794921875Z M75.03564453125 13.37646484375V14.12353515625H68.9052734375Q69.00048828125 15.04638671875 69.57177734375 15.5078125Q70.14306640625 15.96923828125 71.16845703125 15.96923828125Q71.99609375 15.96923828125 72.864013671875 15.723876953125Q73.73193359375 15.478515625 74.6474609375 14.98046875V17.001953125Q73.71728515625 17.353515625 72.787109375 17.532958984375Q71.85693359375 17.71240234375 70.9267578125 17.71240234375Q68.7001953125 17.71240234375 67.466064453125 16.580810546875Q66.23193359375 15.44921875 66.23193359375 13.40576171875Q66.23193359375 11.39892578125 67.444091796875 10.2490234375Q68.65625 9.09912109375 70.7802734375 9.09912109375Q72.7138671875 9.09912109375 73.874755859375 10.263671875Q75.03564453125 11.42822265625 75.03564453125 13.37646484375ZM72.34033203125 12.5048828125Q72.34033203125 11.7578125 71.904541015625 11.300048828125Q71.46875 10.84228515625 70.765625 10.84228515625Q70.00390625 10.84228515625 69.52783203125 11.270751953125Q69.0517578125 11.69921875 68.9345703125 12.5048828125Z M83.1142578125 11.53076171875Q82.77001953125 11.36962890625 82.429443359375 11.292724609375Q82.0888671875 11.2158203125 81.74462890625 11.2158203125Q80.73388671875 11.2158203125 80.188232421875 11.864013671875Q79.642578125 12.51220703125 79.642578125 13.720703125V17.5H77.0205078125V9.296875H79.642578125V10.64453125Q80.14794921875 9.8388671875 80.803466796875 9.468994140625Q81.458984375 9.09912109375 82.37451171875 9.09912109375Q82.50634765625 9.09912109375 82.66015625 9.110107421875Q82.81396484375 9.12109375 83.10693359375 9.15771484375Z M92.6064453125 13.37646484375V14.12353515625H86.47607421875Q86.5712890625 15.04638671875 87.142578125 15.5078125Q87.7138671875 15.96923828125 88.7392578125 15.96923828125Q89.56689453125 15.96923828125 90.434814453125 15.723876953125Q91.302734375 15.478515625 92.21826171875 14.98046875V17.001953125Q91.2880859375 17.353515625 90.35791015625 17.532958984375Q89.427734375 17.71240234375 88.49755859375 17.71240234375Q86.27099609375 17.71240234375 85.036865234375 16.580810546875Q83.802734375 15.44921875 83.802734375 13.40576171875Q83.802734375 11.39892578125 85.014892578125 10.2490234375Q86.22705078125 9.09912109375 88.35107421875 9.09912109375Q90.28466796875 9.09912109375 91.445556640625 10.263671875Q92.6064453125 11.42822265625 92.6064453125 13.37646484375ZM89.9111328125 12.5048828125Q89.9111328125 11.7578125 89.475341796875 11.300048828125Q89.03955078125 10.84228515625 88.33642578125 10.84228515625Q87.57470703125 10.84228515625 87.0986328125 11.270751953125Q86.62255859375 11.69921875 86.50537109375 12.5048828125Z M101.0 9.55322265625V11.54541015625Q100.15771484375 11.19384765625 99.3740234375 11.01806640625Q98.59033203125 10.84228515625 97.89453125 10.84228515625Q97.1474609375 10.84228515625 96.784912109375 11.029052734375Q96.42236328125 11.2158203125 96.42236328125 11.60400390625Q96.42236328125 11.9189453125 96.697021484375 12.08740234375Q96.9716796875 12.255859375 97.68212890625 12.33642578125L98.1435546875 12.40234375Q100.15771484375 12.65869140625 100.853515625 13.24462890625Q101.54931640625 13.83056640625 101.54931640625 15.0830078125Q101.54931640625 16.39404296875 100.58251953125 17.05322265625Q99.61572265625 17.71240234375 97.69677734375 17.71240234375Q96.8837890625 17.71240234375 96.015869140625 17.584228515625Q95.14794921875 17.4560546875 94.232421875 17.19970703125V15.20751953125Q95.01611328125 15.58837890625 95.840087890625 15.77880859375Q96.6640625 15.96923828125 97.513671875 15.96923828125Q98.28271484375 15.96923828125 98.6708984375 15.7568359375Q99.05908203125 15.54443359375 99.05908203125 15.126953125Q99.05908203125 14.775390625 98.791748046875 14.603271484375Q98.5244140625 14.43115234375 97.72607421875 14.3359375L97.2646484375 14.27734375Q95.51416015625 14.0576171875 94.81103515625 13.46435546875Q94.10791015625 12.87109375 94.10791015625 11.66259765625Q94.10791015625 10.35888671875 95.00146484375 9.72900390625Q95.89501953125 9.09912109375 97.74072265625 9.09912109375Q98.4658203125 9.09912109375 99.26416015625 9.208984375Q100.0625 9.31884765625 101.0 9.55322265625Z" fill="#22DD66"/>
  <path d="M26.44677734375 6.56494140625H29.1494140625L31.0390625 14.51171875L32.9140625 6.56494140625H35.63134765625L37.50634765625 14.51171875L39.39599609375 6.56494140625H42.07666015625L39.49853515625 17.5H36.24658203125L34.26171875 9.18701171875L32.298828125 17.5H29.046875Z M50.55810546875 15.5078125H46.14892578125L45.453125 17.5H42.61865234375L46.6689453125 6.56494140625H50.03076171875L54.0810546875 17.5H51.24658203125ZM46.85205078125 13.47900390625H49.84765625L48.353515625 9.12841796875Z" fill="#FFFFFF"/>
  <line x1="111.3" y1="3" x2="111.3" y2="20" stroke="#444444" stroke-width="1"/>
  <path d="M125.1115234375 10.5419921875V6.103515625H126.4591796875V17.5H125.1115234375V16.26953125Q124.68671875 17.001953125 124.038525390625 17.357177734375Q123.39033203125 17.71240234375 122.48212890625 17.71240234375Q120.9953125 17.71240234375 120.061474609375 16.52587890625Q119.12763671875 15.33935546875 119.12763671875 13.40576171875Q119.12763671875 11.47216796875 120.061474609375 10.28564453125Q120.9953125 9.09912109375 122.48212890625 9.09912109375Q123.39033203125 9.09912109375 124.038525390625 9.454345703125Q124.68671875 9.8095703125 125.1115234375 10.5419921875ZM120.51923828125 13.40576171875Q120.51923828125 14.892578125 121.130810546875 15.738525390625Q121.7423828125 16.58447265625 122.81171875 16.58447265625Q123.8810546875 16.58447265625 124.4962890625 15.738525390625Q125.1115234375 14.892578125 125.1115234375 13.40576171875Q125.1115234375 11.9189453125 124.4962890625 11.072998046875Q123.8810546875 10.22705078125 122.81171875 10.22705078125Q121.7423828125 10.22705078125 121.130810546875 11.072998046875Q120.51923828125 11.9189453125 120.51923828125 13.40576171875Z M132.41376953125 10.24169921875Q131.32978515625 10.24169921875 130.69990234375 11.087646484375Q130.07001953125 11.93359375 130.07001953125 13.40576171875Q130.07001953125 14.8779296875 130.696240234375 15.723876953125Q131.3224609375 16.56982421875 132.41376953125 16.56982421875Q133.4904296875 16.56982421875 134.1203125 15.72021484375Q134.7501953125 14.87060546875 134.7501953125 13.40576171875Q134.7501953125 11.9482421875 134.1203125 11.094970703125Q133.4904296875 10.24169921875 132.41376953125 10.24169921875ZM132.41376953125 9.09912109375Q134.17158203125 9.09912109375 135.175 10.24169921875Q136.17841796875 11.38427734375 136.17841796875 13.40576171875Q136.17841796875 15.419921875 135.175 16.566162109375Q134.17158203125 17.71240234375 132.41376953125 17.71240234375Q130.6486328125 17.71240234375 129.648876953125 16.566162109375Q128.64912109375 15.419921875 128.64912109375 13.40576171875Q128.64912109375 11.38427734375 129.648876953125 10.24169921875Q130.6486328125 9.09912109375 132.41376953125 9.09912109375Z M144.315625 9.61181640625V10.87158203125Q143.7443359375 10.556640625 143.169384765625 10.399169921875Q142.59443359375 10.24169921875 142.00849609375 10.24169921875Q140.6974609375 10.24169921875 139.97236328125 11.072998046875Q139.247265625 11.904296875 139.247265625 13.40576171875Q139.247265625 14.9072265625 139.97236328125 15.738525390625Q140.6974609375 16.56982421875 142.00849609375 16.56982421875Q142.59443359375 16.56982421875 143.169384765625 16.412353515625Q143.7443359375 16.2548828125 144.315625 15.93994140625V17.18505859375Q143.75166015625 17.44873046875 143.147412109375 17.58056640625Q142.5431640625 17.71240234375 141.86201171875 17.71240234375Q140.008984375 17.71240234375 138.91767578125 16.5478515625Q137.8263671875 15.38330078125 137.8263671875 13.40576171875Q137.8263671875 11.39892578125 138.928662109375 10.2490234375Q140.03095703125 9.09912109375 141.94990234375 9.09912109375Q142.5724609375 9.09912109375 143.16572265625 9.227294921875Q143.758984375 9.35546875 144.315625 9.61181640625Z M151.8888671875 9.53857421875V10.81298828125Q151.317578125 10.52001953125 150.70234375 10.37353515625Q150.087109375 10.22705078125 149.4279296875 10.22705078125Q148.42451171875 10.22705078125 147.922802734375 10.53466796875Q147.42109375 10.84228515625 147.42109375 11.45751953125Q147.42109375 11.92626953125 147.77998046875 12.193603515625Q148.1388671875 12.4609375 149.2228515625 12.70263671875L149.68427734375 12.80517578125Q151.11982421875 13.11279296875 151.724072265625 13.673095703125Q152.3283203125 14.2333984375 152.3283203125 15.23681640625Q152.3283203125 16.37939453125 151.423779296875 17.0458984375Q150.51923828125 17.71240234375 148.93720703125 17.71240234375Q148.27802734375 17.71240234375 147.563916015625 17.584228515625Q146.8498046875 17.4560546875 146.0587890625 17.19970703125V15.80810546875Q146.805859375 16.1962890625 147.53095703125 16.390380859375Q148.2560546875 16.58447265625 148.96650390625 16.58447265625Q149.91865234375 16.58447265625 150.43134765625 16.258544921875Q150.94404296875 15.9326171875 150.94404296875 15.33935546875Q150.94404296875 14.7900390625 150.574169921875 14.4970703125Q150.204296875 14.2041015625 148.95185546875 13.93310546875L148.48310546875 13.8232421875Q147.2306640625 13.5595703125 146.6740234375 13.013916015625Q146.1173828125 12.46826171875 146.1173828125 11.51611328125Q146.1173828125 10.35888671875 146.9376953125 9.72900390625Q147.7580078125 9.09912109375 149.266796875 9.09912109375Q150.0138671875 9.09912109375 150.673046875 9.208984375Q151.3322265625 9.31884765625 151.8888671875 9.53857421875Z" fill="#888888"/>
  <path d="M3.217529296875 6.02294921875H5.559814453125L7.197509765625 12.91015625L8.822509765625 6.02294921875H11.177490234375L12.802490234375 12.91015625L14.440185546875 6.02294921875H16.763427734375L14.529052734375 15.5H11.710693359375L9.990478515625 8.29541015625L8.289306640625 15.5H5.470947265625Z" fill="#111111"/>
</svg>